<mxfile host="Electron" agent="Mozilla/5.0 (Macintosh; Intel Mac OS X 10_15_7) AppleWebKit/537.36 (KHTML, like Gecko) draw.io/26.0.4 Chrome/128.0.6613.186 Electron/32.2.5 Safari/537.36" version="26.0.4">
  <diagram id="R2pq2mxgLi2LsMfp0vrf" name="Page-1">
    <mxGraphModel dx="1209" dy="1491" grid="1" gridSize="10" guides="1" tooltips="1" connect="1" arrows="1" fold="1" page="1" pageScale="1" pageWidth="827" pageHeight="1169" math="0" shadow="0">
      <root>
        <mxCell id="0" />
        <mxCell id="1" parent="0" />
        <mxCell id="jBUJeerenCHgtwSYMlUu-4" value="Gestionnaire" style="shape=umlLifeline;perimeter=lifelinePerimeter;whiteSpace=wrap;html=1;container=1;dropTarget=0;collapsible=0;recursiveResize=0;outlineConnect=0;portConstraint=eastwest;newEdgeStyle={&quot;curved&quot;:0,&quot;rounded&quot;:0};" vertex="1" parent="1">
          <mxGeometry x="40" y="80" width="100" height="680" as="geometry" />
        </mxCell>
        <mxCell id="jBUJeerenCHgtwSYMlUu-5" value="UCC" style="shape=umlLifeline;perimeter=lifelinePerimeter;whiteSpace=wrap;html=1;container=1;dropTarget=0;collapsible=0;recursiveResize=0;outlineConnect=0;portConstraint=eastwest;newEdgeStyle={&quot;curved&quot;:0,&quot;rounded&quot;:0};" vertex="1" parent="1">
          <mxGeometry x="350" y="80" width="100" height="680" as="geometry" />
        </mxCell>
        <mxCell id="jBUJeerenCHgtwSYMlUu-19" value="" style="html=1;points=[[0,0,0,0,5],[0,1,0,0,-5],[1,0,0,0,5],[1,1,0,0,-5]];perimeter=orthogonalPerimeter;outlineConnect=0;targetShapes=umlLifeline;portConstraint=eastwest;newEdgeStyle={&quot;curved&quot;:0,&quot;rounded&quot;:0};" vertex="1" parent="jBUJeerenCHgtwSYMlUu-5">
          <mxGeometry x="45" y="80" width="10" height="580" as="geometry" />
        </mxCell>
        <mxCell id="jBUJeerenCHgtwSYMlUu-6" value="&lt;u&gt;:SystÃ¨me&lt;/u&gt;" style="shape=umlLifeline;perimeter=lifelinePerimeter;whiteSpace=wrap;html=1;container=1;dropTarget=0;collapsible=0;recursiveResize=0;outlineConnect=0;portConstraint=eastwest;newEdgeStyle={&quot;curved&quot;:0,&quot;rounded&quot;:0};" vertex="1" parent="1">
          <mxGeometry x="700" y="80" width="100" height="680" as="geometry" />
        </mxCell>
        <mxCell id="jBUJeerenCHgtwSYMlUu-21" value="" style="html=1;points=[[0,0,0,0,5],[0,1,0,0,-5],[1,0,0,0,5],[1,1,0,0,-5]];perimeter=orthogonalPerimeter;outlineConnect=0;targetShapes=umlLifeline;portConstraint=eastwest;newEdgeStyle={&quot;curved&quot;:0,&quot;rounded&quot;:0};" vertex="1" parent="jBUJeerenCHgtwSYMlUu-6">
          <mxGeometry x="45" y="110" width="10" height="30" as="geometry" />
        </mxCell>
        <mxCell id="jBUJeerenCHgtwSYMlUu-31" value="" style="html=1;points=[[0,0,0,0,5],[0,1,0,0,-5],[1,0,0,0,5],[1,1,0,0,-5]];perimeter=orthogonalPerimeter;outlineConnect=0;targetShapes=umlLifeline;portConstraint=eastwest;newEdgeStyle={&quot;curved&quot;:0,&quot;rounded&quot;:0};" vertex="1" parent="jBUJeerenCHgtwSYMlUu-6">
          <mxGeometry x="45.00000000000004" y="335" width="10" height="30" as="geometry" />
        </mxCell>
        <mxCell id="jBUJeerenCHgtwSYMlUu-32" value="recupererPanier(Enfant)" style="html=1;verticalAlign=bottom;endArrow=block;curved=0;rounded=0;entryX=0;entryY=0;entryDx=0;entryDy=5;" edge="1" parent="jBUJeerenCHgtwSYMlUu-6" target="jBUJeerenCHgtwSYMlUu-31">
          <mxGeometry relative="1" as="geometry">
            <mxPoint x="-300.3333333333335" y="340" as="sourcePoint" />
          </mxGeometry>
        </mxCell>
        <mxCell id="jBUJeerenCHgtwSYMlUu-33" value="listCadeau" style="html=1;verticalAlign=bottom;endArrow=open;dashed=1;endSize=8;curved=0;rounded=0;exitX=0;exitY=1;exitDx=0;exitDy=-5;" edge="1" parent="jBUJeerenCHgtwSYMlUu-6" source="jBUJeerenCHgtwSYMlUu-31">
          <mxGeometry relative="1" as="geometry">
            <mxPoint x="-300.3333333333335" y="360" as="targetPoint" />
          </mxGeometry>
        </mxCell>
        <mxCell id="jBUJeerenCHgtwSYMlUu-7" value="" style="shape=umlActor;verticalLabelPosition=bottom;verticalAlign=top;html=1;outlineConnect=0;" vertex="1" parent="1">
          <mxGeometry x="80" y="30" width="20" height="40" as="geometry" />
        </mxCell>
        <mxCell id="jBUJeerenCHgtwSYMlUu-18" value="composerColis(Famille)" style="html=1;verticalAlign=bottom;endArrow=openAsync;curved=0;rounded=0;endFill=0;" edge="1" parent="1" target="jBUJeerenCHgtwSYMlUu-5">
          <mxGeometry width="80" relative="1" as="geometry">
            <mxPoint x="90" y="160" as="sourcePoint" />
            <mxPoint x="170" y="160" as="targetPoint" />
          </mxGeometry>
        </mxCell>
        <mxCell id="jBUJeerenCHgtwSYMlUu-22" value="recupererMontantMaximum(Famille)" style="html=1;verticalAlign=bottom;endArrow=block;curved=0;rounded=0;entryX=0;entryY=0;entryDx=0;entryDy=5;" edge="1" target="jBUJeerenCHgtwSYMlUu-21" parent="1">
          <mxGeometry relative="1" as="geometry">
            <mxPoint x="399.6666666666665" y="195" as="sourcePoint" />
          </mxGeometry>
        </mxCell>
        <mxCell id="jBUJeerenCHgtwSYMlUu-23" value="montantMaximum" style="html=1;verticalAlign=bottom;endArrow=open;dashed=1;endSize=8;curved=0;rounded=0;exitX=0;exitY=1;exitDx=0;exitDy=-5;" edge="1" source="jBUJeerenCHgtwSYMlUu-21" parent="1">
          <mxGeometry relative="1" as="geometry">
            <mxPoint x="399.6666666666665" y="215" as="targetPoint" />
          </mxGeometry>
        </mxCell>
        <mxCell id="jBUJeerenCHgtwSYMlUu-24" value="par" style="shape=umlFrame;whiteSpace=wrap;html=1;pointerEvents=0;" vertex="1" parent="1">
          <mxGeometry x="320" y="170" width="480" height="130" as="geometry" />
        </mxCell>
        <mxCell id="jBUJeerenCHgtwSYMlUu-28" value="" style="html=1;points=[[0,0,0,0,5],[0,1,0,0,-5],[1,0,0,0,5],[1,1,0,0,-5]];perimeter=orthogonalPerimeter;outlineConnect=0;targetShapes=umlLifeline;portConstraint=eastwest;newEdgeStyle={&quot;curved&quot;:0,&quot;rounded&quot;:0};" vertex="1" parent="1">
          <mxGeometry x="745.33" y="250" width="10" height="30" as="geometry" />
        </mxCell>
        <mxCell id="jBUJeerenCHgtwSYMlUu-29" value="recupererEnfants(Famille)" style="html=1;verticalAlign=bottom;endArrow=block;curved=0;rounded=0;entryX=0;entryY=0;entryDx=0;entryDy=5;" edge="1" parent="1">
          <mxGeometry relative="1" as="geometry">
            <mxPoint x="399.9966666666665" y="255" as="sourcePoint" />
            <mxPoint x="745.3299999999999" y="255" as="targetPoint" />
          </mxGeometry>
        </mxCell>
        <mxCell id="jBUJeerenCHgtwSYMlUu-30" value="listEnfants" style="html=1;verticalAlign=bottom;endArrow=open;dashed=1;endSize=8;curved=0;rounded=0;exitX=0;exitY=1;exitDx=0;exitDy=-5;" edge="1" parent="1" source="jBUJeerenCHgtwSYMlUu-28">
          <mxGeometry relative="1" as="geometry">
            <mxPoint x="399.9966666666665" y="275" as="targetPoint" />
          </mxGeometry>
        </mxCell>
        <mxCell id="jBUJeerenCHgtwSYMlUu-34" value="loop" style="shape=umlFrame;whiteSpace=wrap;html=1;pointerEvents=0;" vertex="1" parent="1">
          <mxGeometry x="120" y="380" width="1040" height="310" as="geometry" />
        </mxCell>
        <mxCell id="jBUJeerenCHgtwSYMlUu-35" value="" style="html=1;points=[[0,0,0,0,5],[0,1,0,0,-5],[1,0,0,0,5],[1,1,0,0,-5]];perimeter=orthogonalPerimeter;outlineConnect=0;targetShapes=umlLifeline;portConstraint=eastwest;newEdgeStyle={&quot;curved&quot;:0,&quot;rounded&quot;:0};" vertex="1" parent="1">
          <mxGeometry x="745.33" y="495" width="10" height="30" as="geometry" />
        </mxCell>
        <mxCell id="jBUJeerenCHgtwSYMlUu-36" value="recupererPrix(Cadeau)" style="html=1;verticalAlign=bottom;endArrow=block;curved=0;rounded=0;entryX=0;entryY=0;entryDx=0;entryDy=5;" edge="1" parent="1" target="jBUJeerenCHgtwSYMlUu-35">
          <mxGeometry relative="1" as="geometry">
            <mxPoint x="399.9966666666665" y="500" as="sourcePoint" />
          </mxGeometry>
        </mxCell>
        <mxCell id="jBUJeerenCHgtwSYMlUu-37" value="prixCadeau" style="html=1;verticalAlign=bottom;endArrow=open;dashed=1;endSize=8;curved=0;rounded=0;exitX=0;exitY=1;exitDx=0;exitDy=-5;" edge="1" parent="1" source="jBUJeerenCHgtwSYMlUu-35">
          <mxGeometry relative="1" as="geometry">
            <mxPoint x="399.6666666666665" y="520" as="targetPoint" />
          </mxGeometry>
        </mxCell>
        <mxCell id="jBUJeerenCHgtwSYMlUu-38" value="Colis" style="shape=umlLifeline;perimeter=lifelinePerimeter;whiteSpace=wrap;html=1;container=1;dropTarget=0;collapsible=0;recursiveResize=0;outlineConnect=0;portConstraint=eastwest;newEdgeStyle={&quot;curved&quot;:0,&quot;rounded&quot;:0};" vertex="1" parent="1">
          <mxGeometry x="1040" y="300" width="100" height="460" as="geometry" />
        </mxCell>
        <mxCell id="jBUJeerenCHgtwSYMlUu-42" value="" style="html=1;points=[[0,0,0,0,5],[0,1,0,0,-5],[1,0,0,0,5],[1,1,0,0,-5]];perimeter=orthogonalPerimeter;outlineConnect=0;targetShapes=umlLifeline;portConstraint=eastwest;newEdgeStyle={&quot;curved&quot;:0,&quot;rounded&quot;:0};" vertex="1" parent="jBUJeerenCHgtwSYMlUu-38">
          <mxGeometry x="45" y="285" width="10" height="35" as="geometry" />
        </mxCell>
        <mxCell id="jBUJeerenCHgtwSYMlUu-40" value="newColis(Famille)" style="html=1;verticalAlign=bottom;endArrow=block;curved=0;rounded=0;dashed=1;" edge="1" parent="1">
          <mxGeometry width="80" relative="1" as="geometry">
            <mxPoint x="407.75" y="340" as="sourcePoint" />
            <mxPoint x="1092.2500000000002" y="340" as="targetPoint" />
          </mxGeometry>
        </mxCell>
        <mxCell id="jBUJeerenCHgtwSYMlUu-43" value="ajouterCadeau(Cadeau, Enfant)" style="html=1;verticalAlign=bottom;endArrow=block;curved=0;rounded=0;entryX=0;entryY=0;entryDx=0;entryDy=5;" edge="1" target="jBUJeerenCHgtwSYMlUu-42" parent="1">
          <mxGeometry relative="1" as="geometry">
            <mxPoint x="405" y="590" as="sourcePoint" />
          </mxGeometry>
        </mxCell>
        <mxCell id="jBUJeerenCHgtwSYMlUu-44" value="montantCadeaux" style="html=1;verticalAlign=bottom;endArrow=open;dashed=1;endSize=8;curved=0;rounded=0;exitX=0;exitY=1;exitDx=0;exitDy=-5;" edge="1" source="jBUJeerenCHgtwSYMlUu-42" parent="1">
          <mxGeometry relative="1" as="geometry">
            <mxPoint x="405" y="615" as="targetPoint" />
          </mxGeometry>
        </mxCell>
        <mxCell id="jBUJeerenCHgtwSYMlUu-45" value="colis" style="html=1;verticalAlign=bottom;endArrow=open;dashed=1;endSize=8;curved=0;rounded=0;" edge="1" parent="1">
          <mxGeometry relative="1" as="geometry">
            <mxPoint x="399.5" y="720" as="sourcePoint" />
            <mxPoint x="89.66666666666652" y="720" as="targetPoint" />
          </mxGeometry>
        </mxCell>
        <mxCell id="jBUJeerenCHgtwSYMlUu-46" value="loop" style="shape=umlFrame;whiteSpace=wrap;html=1;pointerEvents=0;" vertex="1" parent="1">
          <mxGeometry x="140" y="465" width="1000" height="205" as="geometry" />
        </mxCell>
        <mxCell id="jBUJeerenCHgtwSYMlUu-47" value="opt" style="shape=umlFrame;whiteSpace=wrap;html=1;pointerEvents=0;" vertex="1" parent="1">
          <mxGeometry x="160" y="550" width="960" height="90" as="geometry" />
        </mxCell>
        <mxCell id="jBUJeerenCHgtwSYMlUu-48" value="[montantCadeaux + prixCadeau&lt;div&gt;&amp;nbsp;&amp;lt;= montantMaximum]&lt;/div&gt;" style="text;html=1;align=center;verticalAlign=middle;resizable=0;points=[];autosize=1;strokeColor=none;fillColor=none;" vertex="1" parent="1">
          <mxGeometry x="180" y="585" width="190" height="40" as="geometry" />
        </mxCell>
        <mxCell id="jBUJeerenCHgtwSYMlUu-49" value="" style="endArrow=none;dashed=1;endFill=0;endSize=12;html=1;rounded=0;exitX=0;exitY=0.538;exitDx=0;exitDy=0;exitPerimeter=0;entryX=1;entryY=0.538;entryDx=0;entryDy=0;entryPerimeter=0;" edge="1" parent="1">
          <mxGeometry width="160" relative="1" as="geometry">
            <mxPoint x="320" y="230.00000000000006" as="sourcePoint" />
            <mxPoint x="800" y="230.00000000000006" as="targetPoint" />
          </mxGeometry>
        </mxCell>
      </root>
    </mxGraphModel>
  </diagram>
</mxfile>
